<svg width="18" height="18" viewBox="0 0 18 18" fill="none" xmlns="http://www.w3.org/2000/svg">
<path d="M8.99357 0.321777C5.37434 0.321777 4.31585 0.325511 4.1101 0.342579C3.36737 0.404318 2.90519 0.521261 2.40168 0.771948C2.01365 0.964631 1.70763 1.18798 1.4056 1.50108C0.855554 2.07206 0.522193 2.77452 0.401516 3.60952C0.342844 4.01489 0.325776 4.09756 0.322309 6.16813C0.320976 6.85832 0.322309 7.76667 0.322309 8.98503C0.322309 12.6013 0.326309 13.6588 0.343644 13.8641C0.403649 14.5868 0.516992 15.0415 0.757012 15.5389C1.21572 16.491 2.09179 17.2057 3.12388 17.4724C3.48124 17.5644 3.87594 17.6151 4.38265 17.6391C4.59734 17.6484 6.78552 17.6551 8.97504 17.6551C11.1646 17.6551 13.3541 17.6524 13.5634 17.6418C14.1501 17.6142 14.4908 17.5684 14.8675 17.4711C15.3793 17.3398 15.8562 17.0985 16.265 16.7638C16.6738 16.4292 17.0047 16.0093 17.2344 15.5336C17.4698 15.0482 17.5891 14.5762 17.6431 13.8912C17.6548 13.7418 17.6598 11.3607 17.6598 8.98277C17.6598 6.60444 17.6544 4.2277 17.6427 4.07836C17.588 3.3823 17.4687 2.91426 17.2257 2.41955C17.0264 2.01459 16.805 1.71216 16.4837 1.40293C15.9103 0.855155 15.2089 0.521794 14.373 0.401251C13.968 0.342712 13.8873 0.325378 11.8151 0.321777H8.99357Z" fill="url(#paint0_radial_2_428)"/>
<path d="M8.99357 0.321777C5.37434 0.321777 4.31585 0.325511 4.1101 0.342579C3.36737 0.404318 2.90519 0.521261 2.40168 0.771948C2.01365 0.964631 1.70763 1.18798 1.4056 1.50108C0.855554 2.07206 0.522193 2.77452 0.401516 3.60952C0.342844 4.01489 0.325776 4.09756 0.322309 6.16813C0.320976 6.85832 0.322309 7.76667 0.322309 8.98503C0.322309 12.6013 0.326309 13.6588 0.343644 13.8641C0.403649 14.5868 0.516992 15.0415 0.757012 15.5389C1.21572 16.491 2.09179 17.2057 3.12388 17.4724C3.48124 17.5644 3.87594 17.6151 4.38265 17.6391C4.59734 17.6484 6.78552 17.6551 8.97504 17.6551C11.1646 17.6551 13.3541 17.6524 13.5634 17.6418C14.1501 17.6142 14.4908 17.5684 14.8675 17.4711C15.3793 17.3398 15.8562 17.0985 16.265 16.7638C16.6738 16.4292 17.0047 16.0093 17.2344 15.5336C17.4698 15.0482 17.5891 14.5762 17.6431 13.8912C17.6548 13.7418 17.6598 11.3607 17.6598 8.98277C17.6598 6.60444 17.6544 4.2277 17.6427 4.07836C17.588 3.3823 17.4687 2.91426 17.2257 2.41955C17.0264 2.01459 16.805 1.71216 16.4837 1.40293C15.9103 0.855155 15.2089 0.521794 14.373 0.401251C13.968 0.342712 13.8873 0.325378 11.8151 0.321777H8.99357Z" fill="url(#paint1_radial_2_428)"/>
<path d="M8.9899 2.58704C7.25162 2.58704 7.03347 2.59464 6.35075 2.62571C5.66935 2.65691 5.20425 2.76478 4.79728 2.92306C4.37631 3.08655 4.01921 3.30523 3.66345 3.66113C3.30742 4.01689 3.08873 4.37399 2.92472 4.79482C2.76604 5.20192 2.65803 5.66716 2.62736 6.34829C2.59696 7.03101 2.58896 7.2493 2.58896 8.98758C2.58896 10.7259 2.59669 10.9433 2.62763 11.6261C2.65896 12.3075 2.76684 12.7726 2.92499 13.1795C3.0886 13.6005 3.30729 13.9576 3.66318 14.3134C4.01881 14.6694 4.37591 14.8886 4.79661 15.0521C5.20385 15.2104 5.66909 15.3182 6.35035 15.3495C7.03307 15.3805 7.25109 15.3881 8.98924 15.3881C10.7277 15.3881 10.9451 15.3805 11.6279 15.3495C12.3093 15.3182 12.7749 15.2104 13.1821 15.0521C13.603 14.8886 13.9595 14.6694 14.3152 14.3134C14.6712 13.9576 14.8899 13.6005 15.0539 13.1797C15.2112 12.7726 15.3192 12.3073 15.3512 11.6262C15.3819 10.9435 15.3899 10.7259 15.3899 8.98758C15.3899 7.2493 15.3819 7.03115 15.3512 6.34842C15.3192 5.66703 15.2112 5.20192 15.0539 4.79496C14.8899 4.37399 14.6712 4.01689 14.3152 3.66113C13.9591 3.3051 13.6031 3.08641 13.1817 2.92306C12.7737 2.76478 12.3083 2.65691 11.6269 2.62571C10.9442 2.59464 10.7269 2.58704 8.98804 2.58704H8.9899ZM8.41572 3.74047C8.58614 3.7402 8.77629 3.74047 8.9899 3.74047C10.6988 3.74047 10.9014 3.7466 11.5763 3.77727C12.2003 3.80581 12.539 3.91008 12.7646 3.99769C13.0633 4.1137 13.2763 4.25238 13.5002 4.4764C13.7242 4.70042 13.8629 4.91377 13.9791 5.21246C14.0667 5.43781 14.1711 5.77651 14.1995 6.40056C14.2302 7.07528 14.2369 7.27797 14.2369 8.98611C14.2369 10.6943 14.2302 10.8969 14.1995 11.5717C14.171 12.1957 14.0667 12.5344 13.9791 12.7598C13.8631 13.0585 13.7242 13.2711 13.5002 13.495C13.2761 13.719 13.0635 13.8577 12.7646 13.9737C12.5393 14.0617 12.2003 14.1658 11.5763 14.1943C10.9015 14.225 10.6988 14.2316 8.9899 14.2316C7.28082 14.2316 7.07827 14.225 6.40355 14.1943C5.7795 14.1655 5.4408 14.0612 5.21505 13.9736C4.91636 13.8576 4.70301 13.7189 4.47899 13.4949C4.25497 13.2709 4.11629 13.0581 4.00001 12.7592C3.9124 12.5339 3.808 12.1952 3.77959 11.5711C3.74892 10.8964 3.74279 10.6937 3.74279 8.98451C3.74279 7.2753 3.74892 7.07368 3.77959 6.39896C3.80813 5.77491 3.9124 5.43621 4.00001 5.21059C4.11602 4.9119 4.25497 4.69855 4.47899 4.47453C4.70301 4.25051 4.91636 4.11183 5.21505 3.99556C5.44067 3.90755 5.7795 3.80354 6.40355 3.77487C6.994 3.7482 7.22282 3.7402 8.41572 3.73887V3.74047ZM12.4065 4.80322C12.2545 4.80322 12.106 4.84828 11.9797 4.93268C11.8534 5.01709 11.755 5.13706 11.6968 5.27742C11.6387 5.41779 11.6235 5.57223 11.6532 5.72123C11.6828 5.87023 11.756 6.00708 11.8635 6.11449C11.9709 6.22189 12.1078 6.29502 12.2568 6.32463C12.4058 6.35423 12.5602 6.33899 12.7006 6.28081C12.8409 6.22264 12.9609 6.12415 13.0452 5.99781C13.1296 5.87147 13.1746 5.72294 13.1745 5.57102C13.1745 5.14699 12.8305 4.80296 12.4065 4.80296V4.80322ZM8.9899 5.70063C7.17468 5.70063 5.70296 7.17236 5.70296 8.98758C5.70296 10.8028 7.17468 12.2739 8.9899 12.2739C10.8051 12.2739 12.2765 10.8028 12.2765 8.98758C12.2765 7.17236 10.805 5.70063 8.98977 5.70063H8.9899ZM8.9899 6.85406C10.1681 6.85406 11.1234 7.80921 11.1234 8.98758C11.1234 10.1658 10.1681 11.1211 8.9899 11.1211C7.81154 11.1211 6.85639 10.1658 6.85639 8.98758C6.85639 7.80921 7.81154 6.85406 8.9899 6.85406V6.85406Z" fill="white"/>
<defs>
<radialGradient id="paint0_radial_2_428" cx="0" cy="0" r="1" gradientUnits="userSpaceOnUse" gradientTransform="translate(4.92716 18.9901) rotate(-90) scale(17.1786 15.9818)">
<stop stop-color="#FFDD55"/>
<stop offset="0.1" stop-color="#FFDD55"/>
<stop offset="0.5" stop-color="#FF543E"/>
<stop offset="1" stop-color="#C837AB"/>
</radialGradient>
<radialGradient id="paint1_radial_2_428" cx="0" cy="0" r="1" gradientUnits="userSpaceOnUse" gradientTransform="translate(-2.5825 1.57044) rotate(78.6776) scale(7.67898 31.6611)">
<stop stop-color="#3771C8"/>
<stop offset="0.128" stop-color="#3771C8"/>
<stop offset="1" stop-color="#6600FF" stop-opacity="0"/>
</radialGradient>
</defs>
</svg>
