<svg width="22" height="18" viewBox="0 0 22 18" fill="none" xmlns="http://www.w3.org/2000/svg">
<path d="M7.04818 17.6551C15.0968 17.6551 19.4983 10.9872 19.4983 5.20504C19.4983 5.01567 19.4944 4.82716 19.4859 4.63943C20.3423 4.01977 21.0814 3.25249 21.6686 2.37356C20.8846 2.7221 20.0409 2.95671 19.1558 3.06248C20.0592 2.52071 20.7528 1.66381 21.08 0.642241C20.221 1.15183 19.2813 1.51104 18.3014 1.70439C17.5029 0.85387 16.3662 0.321899 15.1073 0.321899C12.6909 0.321899 10.7313 2.28153 10.7313 4.69704C10.7313 5.04043 10.7698 5.37444 10.8448 5.69478C7.20807 5.51178 3.98325 3.77059 1.82502 1.12297C1.4363 1.7907 1.23183 2.54965 1.2325 3.32228C1.2325 4.8404 2.00501 6.18059 3.17974 6.96463C2.48488 6.94343 1.80526 6.75575 1.198 6.41734C1.19736 6.43574 1.19736 6.45363 1.19736 6.47324C1.19736 8.59239 2.70567 10.3617 4.70788 10.7626C4.33183 10.8651 3.9438 10.9169 3.55405 10.9167C3.27803 10.9165 3.00266 10.89 2.73165 10.8377C3.28874 12.5763 4.90412 13.8415 6.8193 13.8769C5.32165 15.0508 3.43503 15.7499 1.38458 15.7499C1.03182 15.7499 0.683349 15.7299 0.34082 15.6894C2.2774 16.9307 4.57691 17.6549 7.0484 17.6549" fill="#1DA1F2"/>
</svg>
