<svg width="92" height="26" viewBox="0 0 92 26" fill="none" xmlns="http://www.w3.org/2000/svg">
<path d="M41.5723 13.2764C41.4993 13.445 41.4629 13.625 41.4629 13.8164V18H39.5967V10.6787H40.0479L40.6631 11.3896C40.9639 11.1162 41.3034 10.9066 41.6816 10.7607C42.0645 10.6104 42.4632 10.5352 42.8779 10.5352C43.3245 10.5352 43.7461 10.6217 44.1426 10.7949C44.5391 10.9635 44.8854 11.1982 45.1816 11.499C45.4779 11.7952 45.7103 12.1439 45.8789 12.5449C46.0521 12.9414 46.1387 13.3652 46.1387 13.8164V18H44.2725V13.8164C44.2725 13.625 44.236 13.445 44.1631 13.2764C44.0902 13.1032 43.9899 12.9528 43.8623 12.8252C43.7347 12.6976 43.5866 12.5973 43.418 12.5244C43.2493 12.4515 43.0693 12.415 42.8779 12.415C42.682 12.415 42.4974 12.4515 42.3242 12.5244C42.151 12.5973 42.0007 12.6976 41.873 12.8252C41.7454 12.9528 41.6452 13.1032 41.5723 13.2764Z" fill="black"/>
<path d="M49.6729 8.68945C49.6729 8.86263 49.6387 9.02441 49.5703 9.1748C49.5065 9.3252 49.4176 9.45736 49.3037 9.57129C49.1898 9.68066 49.0553 9.76953 48.9004 9.83789C48.75 9.90169 48.5882 9.93359 48.415 9.93359C48.2419 9.93359 48.0778 9.90169 47.9229 9.83789C47.7725 9.76953 47.6403 9.68066 47.5264 9.57129C47.417 9.45736 47.3281 9.3252 47.2598 9.1748C47.196 9.02441 47.1641 8.86263 47.1641 8.68945C47.1641 8.52083 47.196 8.36133 47.2598 8.21094C47.3281 8.05599 47.417 7.92383 47.5264 7.81445C47.6403 7.70052 47.7725 7.61165 47.9229 7.54785C48.0778 7.47949 48.2419 7.44531 48.415 7.44531C48.5882 7.44531 48.75 7.47949 48.9004 7.54785C49.0553 7.61165 49.1898 7.70052 49.3037 7.81445C49.4176 7.92383 49.5065 8.05599 49.5703 8.21094C49.6387 8.36133 49.6729 8.52083 49.6729 8.68945Z" fill="black"/>
<path fill-rule="evenodd" clip-rule="evenodd" d="M53.0977 17.7471C52.9473 17.6696 52.8014 17.5898 52.6602 17.5078V20.7891H50.7803V10.6787H51.2314L51.9766 11.5605C52.1452 11.401 52.3298 11.2507 52.5303 11.1094C52.7308 10.9681 52.9382 10.8473 53.1523 10.7471C53.3711 10.6423 53.5967 10.5602 53.8291 10.501C54.0615 10.4417 54.2962 10.4121 54.5332 10.4121C55.0482 10.4121 55.5312 10.5055 55.9824 10.6924C56.4382 10.8747 56.8346 11.1344 57.1719 11.4717C57.5137 11.8089 57.7826 12.2168 57.9785 12.6953C58.1745 13.1693 58.2725 13.6956 58.2725 14.2744C58.2725 14.876 58.1745 15.4183 57.9785 15.9014C57.7826 16.3799 57.5137 16.7878 57.1719 17.125C56.8346 17.4577 56.4382 17.7129 55.9824 17.8906C55.5312 18.0684 55.0482 18.1572 54.5332 18.1572C54.3691 18.1572 54.2051 18.139 54.041 18.1025C53.8815 18.0661 53.722 18.0182 53.5625 17.959C53.4076 17.8952 53.2526 17.8245 53.0977 17.7471ZM56.3994 14.2744C56.3994 13.9645 56.3493 13.6865 56.249 13.4404C56.1533 13.1943 56.0212 12.987 55.8525 12.8184C55.6839 12.6452 55.4857 12.513 55.2578 12.4219C55.0299 12.3307 54.7884 12.2852 54.5332 12.2852C54.278 12.2852 54.0365 12.3307 53.8086 12.4219C53.5853 12.513 53.3893 12.6452 53.2207 12.8184C53.0521 12.987 52.9176 13.1943 52.8174 13.4404C52.7217 13.6865 52.6738 13.9645 52.6738 14.2744C52.6738 14.5706 52.7217 14.8418 52.8174 15.0879C52.9176 15.334 53.0521 15.5436 53.2207 15.7168C53.3893 15.89 53.5853 16.0244 53.8086 16.1201C54.0365 16.2158 54.278 16.2637 54.5332 16.2637C54.7884 16.2637 55.0299 16.2158 55.2578 16.1201C55.4857 16.0244 55.6839 15.89 55.8525 15.7168C56.0212 15.5436 56.1533 15.334 56.249 15.0879C56.3493 14.8418 56.3994 14.5706 56.3994 14.2744Z" fill="black"/>
<path d="M69.8457 13.2764C69.7728 13.445 69.7363 13.625 69.7363 13.8164V18H67.8701V7.7666H69.7363V11C69.9596 10.8314 70.1898 10.7129 70.4268 10.6445C70.6637 10.5716 70.9053 10.5352 71.1514 10.5352C71.6025 10.5352 72.0264 10.6217 72.4229 10.7949C72.8193 10.9635 73.1634 11.1982 73.4551 11.499C73.7513 11.7952 73.9837 12.1439 74.1523 12.5449C74.3255 12.9414 74.4121 13.3652 74.4121 13.8164V18H72.5322V13.8164H72.5459C72.5459 13.625 72.5094 13.445 72.4365 13.2764C72.3636 13.1032 72.2633 12.9528 72.1357 12.8252C72.0081 12.6976 71.86 12.5973 71.6914 12.5244C71.5228 12.4515 71.3428 12.415 71.1514 12.415C70.9554 12.415 70.7708 12.4515 70.5977 12.5244C70.4245 12.5973 70.2741 12.6976 70.1465 12.8252C70.0189 12.9528 69.9186 13.1032 69.8457 13.2764Z" fill="black"/>
<path fill-rule="evenodd" clip-rule="evenodd" d="M82.8203 14.2744C82.8203 14.8213 82.7223 15.3317 82.5264 15.8057C82.3304 16.2751 82.0638 16.6829 81.7266 17.0293C81.3893 17.3711 80.9928 17.6423 80.5371 17.8428C80.0859 18.0387 79.6006 18.1367 79.0811 18.1367C78.5661 18.1367 78.0807 18.0387 77.625 17.8428C77.1738 17.6423 76.7773 17.3711 76.4355 17.0293C76.0983 16.6829 75.8317 16.2751 75.6357 15.8057C75.4398 15.3317 75.3418 14.8213 75.3418 14.2744C75.3418 13.7184 75.4398 13.2035 75.6357 12.7295C75.8317 12.2555 76.0983 11.8477 76.4355 11.5059C76.7773 11.1595 77.1738 10.8883 77.625 10.6924C78.0807 10.4964 78.5661 10.3984 79.0811 10.3984C79.6006 10.3984 80.0859 10.4919 80.5371 10.6787C80.9928 10.861 81.3893 11.123 81.7266 11.4648C82.0638 11.8021 82.3304 12.21 82.5264 12.6885C82.7223 13.1624 82.8203 13.6911 82.8203 14.2744ZM80.9404 14.2744C80.9404 13.9736 80.8903 13.7025 80.79 13.4609C80.6943 13.2148 80.5622 13.0052 80.3936 12.832C80.2249 12.6543 80.0267 12.5199 79.7988 12.4287C79.5755 12.333 79.3363 12.2852 79.0811 12.2852C78.8258 12.2852 78.5843 12.333 78.3564 12.4287C78.1331 12.5199 77.9372 12.6543 77.7686 12.832C77.6045 13.0052 77.4746 13.2148 77.3789 13.4609C77.2832 13.7025 77.2354 13.9736 77.2354 14.2744C77.2354 14.557 77.2832 14.819 77.3789 15.0605C77.4746 15.3021 77.6045 15.5117 77.7686 15.6895C77.9372 15.8672 78.1331 16.0085 78.3564 16.1133C78.5843 16.2135 78.8258 16.2637 79.0811 16.2637C79.3363 16.2637 79.5755 16.2158 79.7988 16.1201C80.0267 16.0244 80.2249 15.89 80.3936 15.7168C80.5622 15.5436 80.6943 15.334 80.79 15.0879C80.8903 14.8418 80.9404 14.5706 80.9404 14.2744Z" fill="black"/>
<path fill-rule="evenodd" clip-rule="evenodd" d="M86.1699 17.7471C86.0195 17.6696 85.8737 17.5898 85.7324 17.5078V20.7891H83.8525V10.6787H84.3037L85.0488 11.5605C85.2174 11.401 85.402 11.2507 85.6025 11.1094C85.8031 10.9681 86.0104 10.8473 86.2246 10.7471C86.4434 10.6423 86.6689 10.5602 86.9014 10.501C87.1338 10.4417 87.3685 10.4121 87.6055 10.4121C88.1204 10.4121 88.6035 10.5055 89.0547 10.6924C89.5104 10.8747 89.9069 11.1344 90.2441 11.4717C90.5859 11.8089 90.8548 12.2168 91.0508 12.6953C91.2467 13.1693 91.3447 13.6956 91.3447 14.2744C91.3447 14.876 91.2467 15.4183 91.0508 15.9014C90.8548 16.3799 90.5859 16.7878 90.2441 17.125C89.9069 17.4577 89.5104 17.7129 89.0547 17.8906C88.6035 18.0684 88.1204 18.1572 87.6055 18.1572C87.4414 18.1572 87.2773 18.139 87.1133 18.1025C86.9538 18.0661 86.7943 18.0182 86.6348 17.959C86.4798 17.8952 86.3249 17.8245 86.1699 17.7471ZM89.4717 14.2744C89.4717 13.9645 89.4216 13.6865 89.3213 13.4404C89.2256 13.1943 89.0934 12.987 88.9248 12.8184C88.7562 12.6452 88.5579 12.513 88.3301 12.4219C88.1022 12.3307 87.8607 12.2852 87.6055 12.2852C87.3503 12.2852 87.1087 12.3307 86.8809 12.4219C86.6576 12.513 86.4616 12.6452 86.293 12.8184C86.1243 12.987 85.9899 13.1943 85.8896 13.4404C85.7939 13.6865 85.7461 13.9645 85.7461 14.2744C85.7461 14.5706 85.7939 14.8418 85.8896 15.0879C85.9899 15.334 86.1243 15.5436 86.293 15.7168C86.4616 15.89 86.6576 16.0244 86.8809 16.1201C87.1087 16.2158 87.3503 16.2637 87.6055 16.2637C87.8607 16.2637 88.1022 16.2158 88.3301 16.1201C88.5579 16.0244 88.7562 15.89 88.9248 15.7168C89.0934 15.5436 89.2256 15.334 89.3213 15.0879C89.4216 14.8418 89.4717 14.5706 89.4717 14.2744Z" fill="black"/>
<path d="M30.6621 11.1367C30.6621 10.7311 30.7396 10.3506 30.8945 9.99512C31.0495 9.63965 31.2591 9.32975 31.5234 9.06543C31.7923 8.79655 32.1045 8.58464 32.46 8.42969C32.8154 8.27474 33.196 8.19727 33.6016 8.19727H38.0996V10.1592H33.6016C33.4648 10.1592 33.3372 10.1842 33.2188 10.2344C33.1003 10.2845 32.9954 10.3551 32.9043 10.4463C32.8177 10.5329 32.7493 10.6354 32.6992 10.7539C32.6491 10.8724 32.624 11 32.624 11.1367C32.624 11.2734 32.6491 11.4033 32.6992 11.5264C32.7493 11.6449 32.8177 11.7497 32.9043 11.8408C32.9954 11.9274 33.1003 11.9958 33.2188 12.0459C33.3372 12.096 33.4648 12.1211 33.6016 12.1211H35.5635C35.9691 12.1211 36.3496 12.1986 36.7051 12.3535C37.0651 12.5039 37.3773 12.7135 37.6416 12.9824C37.9105 13.2467 38.1201 13.5589 38.2705 13.9189C38.4255 14.2744 38.5029 14.6549 38.5029 15.0605C38.5029 15.4661 38.4255 15.8467 38.2705 16.2021C38.1201 16.5576 37.9105 16.8698 37.6416 17.1387C37.3773 17.403 37.0651 17.6126 36.7051 17.7676C36.3496 17.9225 35.9691 18 35.5635 18H31.209V16.0381H35.5635C35.7002 16.0381 35.8278 16.013 35.9463 15.9629C36.0648 15.9128 36.1673 15.8444 36.2539 15.7578C36.3451 15.6667 36.4157 15.5618 36.4658 15.4434C36.516 15.3249 36.541 15.1973 36.541 15.0605C36.541 14.9238 36.516 14.7962 36.4658 14.6777C36.4157 14.5592 36.3451 14.4567 36.2539 14.3701C36.1673 14.279 36.0648 14.2083 35.9463 14.1582C35.8278 14.1081 35.7002 14.083 35.5635 14.083H33.6016C33.196 14.083 32.8154 14.0055 32.46 13.8506C32.1045 13.6956 31.7923 13.486 31.5234 13.2217C31.2591 12.9528 31.0495 12.6406 30.8945 12.2852C30.7396 11.9251 30.6621 11.5423 30.6621 11.1367Z" fill="black"/>
<path d="M59.168 9.99512C59.013 10.3506 58.9355 10.7311 58.9355 11.1367C58.9355 11.5423 59.013 11.9251 59.168 12.2852C59.3229 12.6406 59.5326 12.9528 59.7969 13.2217C60.0658 13.486 60.3779 13.6956 60.7334 13.8506C61.0889 14.0055 61.4694 14.083 61.875 14.083H63.8369C63.9736 14.083 64.1012 14.1081 64.2197 14.1582C64.3382 14.2083 64.4408 14.279 64.5273 14.3701C64.6185 14.4567 64.6891 14.5592 64.7393 14.6777C64.7894 14.7962 64.8145 14.9238 64.8145 15.0605C64.8145 15.1973 64.7894 15.3249 64.7393 15.4434C64.6891 15.5618 64.6185 15.6667 64.5273 15.7578C64.4408 15.8444 64.3382 15.9128 64.2197 15.9629C64.1012 16.013 63.9736 16.0381 63.8369 16.0381H59.4824V18H63.8369C64.2425 18 64.623 17.9225 64.9785 17.7676C65.3385 17.6126 65.6507 17.403 65.915 17.1387C66.1839 16.8698 66.3936 16.5576 66.5439 16.2021C66.6989 15.8467 66.7764 15.4661 66.7764 15.0605C66.7764 14.6549 66.6989 14.2744 66.5439 13.9189C66.3936 13.5589 66.1839 13.2467 65.915 12.9824C65.6507 12.7135 65.3385 12.5039 64.9785 12.3535C64.623 12.1986 64.2425 12.1211 63.8369 12.1211H61.875C61.7383 12.1211 61.6107 12.096 61.4922 12.0459C61.3737 11.9958 61.2689 11.9274 61.1777 11.8408C61.0911 11.7497 61.0228 11.6449 60.9727 11.5264C60.9225 11.4033 60.8975 11.2734 60.8975 11.1367C60.8975 11 60.9225 10.8724 60.9727 10.7539C61.0228 10.6354 61.0911 10.5329 61.1777 10.4463C61.2689 10.3551 61.3737 10.2845 61.4922 10.2344C61.6107 10.1842 61.7383 10.1592 61.875 10.1592H66.373V8.19727H61.875C61.4694 8.19727 61.0889 8.27474 60.7334 8.42969C60.3779 8.58464 60.0658 8.79655 59.7969 9.06543C59.5326 9.32975 59.3229 9.63965 59.168 9.99512Z" fill="black"/>
<path d="M49.3516 18H47.4717V10.6787H49.3516V18Z" fill="black"/>
<path d="M59.168 9.99512C59.013 10.3506 58.9355 10.7311 58.9355 11.1367C58.9355 11.5423 59.013 11.9251 59.168 12.2852C59.3229 12.6406 59.5326 12.9528 59.7969 13.2217C60.0658 13.486 60.3779 13.6956 60.7334 13.8506C61.0889 14.0055 61.4694 14.083 61.875 14.083H63.8369C63.9736 14.083 64.1012 14.1081 64.2197 14.1582C64.3382 14.2083 64.4408 14.279 64.5273 14.3701C64.6185 14.4567 64.6891 14.5592 64.7393 14.6777C64.7894 14.7962 64.8145 14.9238 64.8145 15.0605C64.8145 15.1973 64.7894 15.3249 64.7393 15.4434C64.6891 15.5618 64.6185 15.6667 64.5273 15.7578C64.4408 15.8444 64.3382 15.9128 64.2197 15.9629C64.1012 16.013 63.9736 16.0381 63.8369 16.0381H59.4824V18H63.8369C64.2425 18 64.623 17.9225 64.9785 17.7676C65.3385 17.6126 65.6507 17.403 65.915 17.1387C66.1839 16.8698 66.3936 16.5576 66.5439 16.2021C66.6989 15.8467 66.7764 15.4661 66.7764 15.0605C66.7764 14.6549 66.6989 14.2744 66.5439 13.9189C66.3936 13.5589 66.1839 13.2467 65.915 12.9824C65.6507 12.7135 65.3385 12.5039 64.9785 12.3535C64.623 12.1986 64.2425 12.1211 63.8369 12.1211H61.875C61.7383 12.1211 61.6107 12.096 61.4922 12.0459C61.3737 11.9958 61.2689 11.9274 61.1777 11.8408C61.0911 11.7497 61.0228 11.6449 60.9727 11.5264C60.9225 11.4033 60.8975 11.2734 60.8975 11.1367C60.8975 11 60.9225 10.8724 60.9727 10.7539C61.0228 10.6354 61.0911 10.5329 61.1777 10.4463C61.2689 10.3551 61.3737 10.2845 61.4922 10.2344C61.6107 10.1842 61.7383 10.1592 61.875 10.1592H66.373V8.19727H61.875C61.4694 8.19727 61.0889 8.27474 60.7334 8.42969C60.3779 8.58464 60.0658 8.79655 59.7969 9.06543C59.5326 9.32975 59.3229 9.63965 59.168 9.99512Z" fill="#4DC1F7"/>
<path d="M30.6621 11.1367C30.6621 10.7311 30.7396 10.3506 30.8945 9.99512C31.0495 9.63965 31.2591 9.32975 31.5234 9.06543C31.7923 8.79655 32.1045 8.58464 32.46 8.42969C32.8154 8.27474 33.196 8.19727 33.6016 8.19727H38.0996V10.1592H33.6016C33.4648 10.1592 33.3372 10.1842 33.2188 10.2344C33.1003 10.2845 32.9954 10.3551 32.9043 10.4463C32.8177 10.5329 32.7493 10.6354 32.6992 10.7539C32.6491 10.8724 32.624 11 32.624 11.1367C32.624 11.2734 32.6491 11.4033 32.6992 11.5264C32.7493 11.6449 32.8177 11.7497 32.9043 11.8408C32.9954 11.9274 33.1003 11.9958 33.2188 12.0459C33.3372 12.096 33.4648 12.1211 33.6016 12.1211H35.5635C35.9691 12.1211 36.3496 12.1986 36.7051 12.3535C37.0651 12.5039 37.3773 12.7135 37.6416 12.9824C37.9105 13.2467 38.1201 13.5589 38.2705 13.9189C38.4255 14.2744 38.5029 14.6549 38.5029 15.0605C38.5029 15.4661 38.4255 15.8467 38.2705 16.2021C38.1201 16.5576 37.9105 16.8698 37.6416 17.1387C37.3773 17.403 37.0651 17.6126 36.7051 17.7676C36.3496 17.9225 35.9691 18 35.5635 18H31.209V16.0381H35.5635C35.7002 16.0381 35.8278 16.013 35.9463 15.9629C36.0648 15.9128 36.1673 15.8444 36.2539 15.7578C36.3451 15.6667 36.4157 15.5618 36.4658 15.4434C36.516 15.3249 36.541 15.1973 36.541 15.0605C36.541 14.9238 36.516 14.7962 36.4658 14.6777C36.4157 14.5592 36.3451 14.4567 36.2539 14.3701C36.1673 14.279 36.0648 14.2083 35.9463 14.1582C35.8278 14.1081 35.7002 14.083 35.5635 14.083H33.6016C33.196 14.083 32.8154 14.0055 32.46 13.8506C32.1045 13.6956 31.7923 13.486 31.5234 13.2217C31.2591 12.9528 31.0495 12.6406 30.8945 12.2852C30.7396 11.9251 30.6621 11.5423 30.6621 11.1367Z" fill="#2196F3"/>
<circle cx="13" cy="13" r="13" fill="white"/>
<path d="M4.29883 9.31152C4.09961 9.76855 4 10.2578 4 10.7793C4 11.3008 4.09961 11.793 4.29883 12.2559C4.49805 12.7129 4.76758 13.1143 5.10742 13.46C5.45312 13.7998 5.85449 14.0693 6.31152 14.2686C6.76855 14.4678 7.25781 14.5674 7.7793 14.5674H10.3018C10.4775 14.5674 10.6416 14.5996 10.7939 14.6641C10.9463 14.7285 11.0781 14.8193 11.1895 14.9365C11.3066 15.0479 11.3975 15.1797 11.4619 15.332C11.5264 15.4844 11.5586 15.6484 11.5586 15.8242C11.5586 16 11.5264 16.1641 11.4619 16.3164C11.3975 16.4688 11.3066 16.6035 11.1895 16.7207C11.0781 16.832 10.9463 16.9199 10.7939 16.9844C10.6416 17.0488 10.4775 17.0811 10.3018 17.0811H4.70312V19.6035H10.3018C10.8232 19.6035 11.3125 19.5039 11.7695 19.3047C12.2324 19.1055 12.6338 18.8359 12.9736 18.4961C13.3193 18.1504 13.5889 17.749 13.7822 17.292C13.9814 16.835 14.0811 16.3457 14.0811 15.8242C14.0811 15.3027 13.9814 14.8135 13.7822 14.3564C13.5889 13.8936 13.3193 13.4922 12.9736 13.1523C12.6338 12.8066 12.2324 12.5371 11.7695 12.3438C11.3125 12.1445 10.8232 12.0449 10.3018 12.0449H7.7793C7.60352 12.0449 7.43945 12.0127 7.28711 11.9482C7.13477 11.8838 7 11.7959 6.88281 11.6846C6.77148 11.5674 6.68359 11.4326 6.61914 11.2803C6.55469 11.1221 6.52246 10.9551 6.52246 10.7793C6.52246 10.6035 6.55469 10.4395 6.61914 10.2871C6.68359 10.1348 6.77148 10.0029 6.88281 9.8916C7 9.77441 7.13477 9.68359 7.28711 9.61914C7.43945 9.55469 7.60352 9.52246 7.7793 9.52246H13.5625V7H7.7793C7.25781 7 6.76855 7.09961 6.31152 7.29883C5.85449 7.49805 5.45312 7.77051 5.10742 8.11621C4.76758 8.45605 4.49805 8.85449 4.29883 9.31152Z" fill="#2196F3"/>
<path d="M11.2988 9.31152C11.0996 9.76855 11 10.2578 11 10.7793C11 11.3008 11.0996 11.793 11.2988 12.2559C11.498 12.7129 11.7676 13.1143 12.1074 13.46C12.4531 13.7998 12.8545 14.0693 13.3115 14.2686C13.7686 14.4678 14.2578 14.5674 14.7793 14.5674H17.3018C17.4775 14.5674 17.6416 14.5996 17.7939 14.6641C17.9463 14.7285 18.0781 14.8193 18.1895 14.9365C18.3066 15.0479 18.3975 15.1797 18.4619 15.332C18.5264 15.4844 18.5586 15.6484 18.5586 15.8242C18.5586 16 18.5264 16.1641 18.4619 16.3164C18.3975 16.4688 18.3066 16.6035 18.1895 16.7207C18.0781 16.832 17.9463 16.9199 17.7939 16.9844C17.6416 17.0488 17.4775 17.0811 17.3018 17.0811H11.7031V19.6035H17.3018C17.8232 19.6035 18.3125 19.5039 18.7695 19.3047C19.2324 19.1055 19.6338 18.8359 19.9736 18.4961C20.3193 18.1504 20.5889 17.749 20.7822 17.292C20.9814 16.835 21.0811 16.3457 21.0811 15.8242C21.0811 15.3027 20.9814 14.8135 20.7822 14.3564C20.5889 13.8936 20.3193 13.4922 19.9736 13.1523C19.6338 12.8066 19.2324 12.5371 18.7695 12.3438C18.3125 12.1445 17.8232 12.0449 17.3018 12.0449H14.7793C14.6035 12.0449 14.4395 12.0127 14.2871 11.9482C14.1348 11.8838 14 11.7959 13.8828 11.6846C13.7715 11.5674 13.6836 11.4326 13.6191 11.2803C13.5547 11.1221 13.5225 10.9551 13.5225 10.7793C13.5225 10.6035 13.5547 10.4395 13.6191 10.2871C13.6836 10.1348 13.7715 10.0029 13.8828 9.8916C14 9.77441 14.1348 9.68359 14.2871 9.61914C14.4395 9.55469 14.6035 9.52246 14.7793 9.52246H20.5625V7H14.7793C14.2578 7 13.7686 7.09961 13.3115 7.29883C12.8545 7.49805 12.4531 7.77051 12.1074 8.11621C11.7676 8.45605 11.498 8.85449 11.2988 9.31152Z" fill="#4DC1F7"/>
</svg>
